<svg width="190" height="190" viewBox="0 0 190 190" fill="none" xmlns="http://www.w3.org/2000/svg">
<g opacity="0.5" filter="url(#filter0_f_108_754)">
<circle cx="95" cy="95" r="45" fill="url(#paint0_linear_108_754)"/>
</g>
<rect x="80" y="80" width="30" height="30" rx="5" fill="url(#paint1_linear_108_754)"/>
<path d="M84.9091 71.6667C86.7668 71.6667 88.2727 70.1743 88.2727 68.3333C88.2727 66.4924 86.7668 65 84.9091 65H78.1818C70.7511 65 64.7273 70.9695 64.7273 78.3333V85C64.7273 86.8409 66.2332 88.3333 68.0909 88.3333C69.9486 88.3333 71.4545 86.841 71.4545 85V78.3333C71.4545 74.6514 74.4664 71.6667 78.1818 71.6667H84.9091Z" fill="#F1F1F1" fill-opacity="0.1"/>
<path d="M84.9091 71.6667C86.7668 71.6667 88.2727 70.1743 88.2727 68.3333C88.2727 66.4924 86.7668 65 84.9091 65H78.1818C70.7511 65 64.7273 70.9695 64.7273 78.3333V85C64.7273 86.8409 66.2332 88.3333 68.0909 88.3333C69.9486 88.3333 71.4545 86.841 71.4545 85V78.3333C71.4545 74.6514 74.4664 71.6667 78.1818 71.6667H84.9091Z" fill="url(#paint2_linear_108_754)" fill-opacity="0.2"/>
<path d="M71.4545 111.667V101.667H118.545V111.667C118.545 115.349 115.534 118.333 111.818 118.333H105.091C103.233 118.333 101.727 119.826 101.727 121.667C101.727 123.508 103.233 125 105.091 125H111.818C119.249 125 125.273 119.03 125.273 111.667V101.667H128.636C130.494 101.667 132 100.174 132 98.3333C132 96.4924 130.494 95 128.636 95H61.3636C59.506 95 58 96.4924 58 98.3333C58 100.174 59.506 101.667 61.3636 101.667H64.7273V111.667C64.7273 119.03 70.7511 125 78.1818 125H84.9091C86.7668 125 88.2727 123.508 88.2727 121.667C88.2727 119.826 86.7668 118.333 84.9091 118.333H78.1818C74.4664 118.333 71.4545 115.349 71.4545 111.667Z" fill="#F1F1F1" fill-opacity="0.1"/>
<path d="M71.4545 111.667V101.667H118.545V111.667C118.545 115.349 115.534 118.333 111.818 118.333H105.091C103.233 118.333 101.727 119.826 101.727 121.667C101.727 123.508 103.233 125 105.091 125H111.818C119.249 125 125.273 119.03 125.273 111.667V101.667H128.636C130.494 101.667 132 100.174 132 98.3333C132 96.4924 130.494 95 128.636 95H61.3636C59.506 95 58 96.4924 58 98.3333C58 100.174 59.506 101.667 61.3636 101.667H64.7273V111.667C64.7273 119.03 70.7511 125 78.1818 125H84.9091C86.7668 125 88.2727 123.508 88.2727 121.667C88.2727 119.826 86.7668 118.333 84.9091 118.333H78.1818C74.4664 118.333 71.4545 115.349 71.4545 111.667Z" fill="url(#paint3_linear_108_754)" fill-opacity="0.2"/>
<path d="M121.909 88.3333C120.051 88.3333 118.545 86.8409 118.545 85V78.3333C118.545 74.6514 115.534 71.6667 111.818 71.6667H105.091C103.233 71.6667 101.727 70.1743 101.727 68.3333C101.727 66.4924 103.233 65 105.091 65H111.818C119.249 65 125.273 70.9695 125.273 78.3333V85C125.273 86.841 123.767 88.3333 121.909 88.3333Z" fill="#F1F1F1" fill-opacity="0.1"/>
<path d="M121.909 88.3333C120.051 88.3333 118.545 86.8409 118.545 85V78.3333C118.545 74.6514 115.534 71.6667 111.818 71.6667H105.091C103.233 71.6667 101.727 70.1743 101.727 68.3333C101.727 66.4924 103.233 65 105.091 65H111.818C119.249 65 125.273 70.9695 125.273 78.3333V85C125.273 86.841 123.767 88.3333 121.909 88.3333Z" fill="url(#paint4_linear_108_754)" fill-opacity="0.2"/>
<path d="M71.4545 101.567H71.3545V101.667V111.667C71.3545 115.405 74.4121 118.433 78.1818 118.433H84.9091C86.7124 118.433 88.1727 119.882 88.1727 121.667C88.1727 123.452 86.7124 124.9 84.9091 124.9H78.1818C70.8055 124.9 64.8273 118.974 64.8273 111.667V101.667V101.567H64.7273H61.3636C59.5603 101.567 58.1 100.118 58.1 98.3333C58.1 96.5485 59.5603 95.1 61.3636 95.1H128.636C130.44 95.1 131.9 96.5485 131.9 98.3333C131.9 100.118 130.44 101.567 128.636 101.567H125.273H125.173V101.667V111.667C125.173 118.974 119.195 124.9 111.818 124.9H105.091C103.288 124.9 101.827 123.452 101.827 121.667C101.827 119.882 103.288 118.433 105.091 118.433H111.818C115.588 118.433 118.645 115.405 118.645 111.667V101.667V101.567H118.545H71.4545ZM88.1727 68.3333C88.1727 70.1182 86.7124 71.5667 84.9091 71.5667H78.1818C74.4121 71.5667 71.3545 74.5954 71.3545 78.3333V85C71.3545 86.7849 69.8942 88.2333 68.0909 88.2333C66.2876 88.2333 64.8273 86.7849 64.8273 85V78.3333C64.8273 71.0256 70.8055 65.1 78.1818 65.1H84.9091C86.7124 65.1 88.1727 66.5485 88.1727 68.3333ZM121.909 88.2333C120.106 88.2333 118.645 86.7849 118.645 85V78.3333C118.645 74.5954 115.588 71.5667 111.818 71.5667H105.091C103.288 71.5667 101.827 70.1182 101.827 68.3333C101.827 66.5485 103.288 65.1 105.091 65.1H111.818C119.195 65.1 125.173 71.0256 125.173 78.3333V85C125.173 86.7849 123.712 88.2333 121.909 88.2333Z" stroke="url(#paint5_linear_108_754)" stroke-opacity="0.1" stroke-width="0.2"/>
<defs>
<filter id="filter0_f_108_754" x="0" y="0" width="190" height="190" filterUnits="userSpaceOnUse" color-interpolation-filters="sRGB">
<feFlood flood-opacity="0" result="BackgroundImageFix"/>
<feBlend mode="normal" in="SourceGraphic" in2="BackgroundImageFix" result="shape"/>
<feGaussianBlur stdDeviation="25" result="effect1_foregroundBlur_108_754"/>
</filter>
<filter id="filter1_bi_108_754" x="55" y="62" width="80" height="66" filterUnits="userSpaceOnUse" color-interpolation-filters="sRGB">
<feFlood flood-opacity="0" result="BackgroundImageFix"/>
<feGaussianBlur in="BackgroundImage" stdDeviation="1.5"/>
<feComposite in2="SourceAlpha" operator="in" result="effect1_backgroundBlur_108_754"/>
<feBlend mode="normal" in="SourceGraphic" in2="effect1_backgroundBlur_108_754" result="shape"/>
<feColorMatrix in="SourceAlpha" type="matrix" values="0 0 0 0 0 0 0 0 0 0 0 0 0 0 0 0 0 0 127 0" result="hardAlpha"/>
<feOffset dy="0.5"/>
<feGaussianBlur stdDeviation="1"/>
<feComposite in2="hardAlpha" operator="arithmetic" k2="-1" k3="1"/>
<feColorMatrix type="matrix" values="0 0 0 0 1 0 0 0 0 1 0 0 0 0 1 0 0 0 0.4 0"/>
<feBlend mode="normal" in2="shape" result="effect2_innerShadow_108_754"/>
</filter>
<linearGradient id="paint0_linear_108_754" x1="45.725" y1="130.1" x2="148.08" y2="124.9" gradientUnits="userSpaceOnUse">
<stop stop-color="#FF00F5" stop-opacity="0.6"/>
<stop offset="1" stop-color="#FF006B"/>
</linearGradient>
<linearGradient id="paint1_linear_108_754" x1="78.575" y1="106.7" x2="112.693" y2="104.967" gradientUnits="userSpaceOnUse">
<stop stop-color="#FF00F5" stop-opacity="0.6"/>
<stop offset="1" stop-color="#FF006B"/>
</linearGradient>
<linearGradient id="paint2_linear_108_754" x1="61.0833" y1="77" x2="140.962" y2="90.6829" gradientUnits="userSpaceOnUse">
<stop stop-color="#FE82DB"/>
<stop offset="1" stop-color="#68E4FF"/>
</linearGradient>
<linearGradient id="paint3_linear_108_754" x1="61.0833" y1="77" x2="140.962" y2="90.6829" gradientUnits="userSpaceOnUse">
<stop stop-color="#FE82DB"/>
<stop offset="1" stop-color="#68E4FF"/>
</linearGradient>
<linearGradient id="paint4_linear_108_754" x1="61.0833" y1="77" x2="140.962" y2="90.6829" gradientUnits="userSpaceOnUse">
<stop stop-color="#FE82DB"/>
<stop offset="1" stop-color="#68E4FF"/>
</linearGradient>
<linearGradient id="paint5_linear_108_754" x1="60.3125" y1="67.7273" x2="132" y2="67.7273" gradientUnits="userSpaceOnUse">
<stop stop-color="#FD84DC"/>
<stop offset="1" stop-color="#7FD6FA"/>
</linearGradient>
</defs>
</svg>
