<svg width="190" height="190" viewBox="0 0 190 190" fill="none" xmlns="http://www.w3.org/2000/svg">
<g opacity="0.5" filter="url(#filter0_f_308_262)">
<circle cx="95" cy="95" r="45" fill="url(#paint0_linear_308_262)"/>
</g>
<ellipse cx="95" cy="96" rx="21" ry="20" fill="url(#paint1_linear_308_262)"/>

<mask id="path-3-inside-1_308_262" fill="white">
<path fill-rule="evenodd" clip-rule="evenodd" d="M120.64 62.4048C119.469 61.2332 117.569 61.2332 116.398 62.4048L61.7754 117.027C60.6038 118.199 60.6038 120.098 61.7754 121.27L69.3586 128.853C70.5302 130.024 72.4297 130.024 73.6012 128.853L128.223 74.2306C129.395 73.0591 129.395 71.1596 128.223 69.988L120.64 62.4048ZM86.6382 74.7245C86.6382 81.6519 81.0224 87.2677 74.095 87.2677C67.1676 87.2677 61.5518 81.6519 61.5518 74.7245C61.5518 67.7971 67.1676 62.1814 74.095 62.1814C81.0224 62.1814 86.6382 67.7971 86.6382 74.7245ZM128.449 116.535C128.449 123.462 122.833 129.078 115.906 129.078C108.978 129.078 103.362 123.462 103.362 116.535C103.362 109.607 108.978 103.992 115.906 103.992C122.833 103.992 128.449 109.607 128.449 116.535Z"/>
</mask>
<path fill-rule="evenodd" clip-rule="evenodd" d="M120.64 62.4048C119.469 61.2332 117.569 61.2332 116.398 62.4048L61.7754 117.027C60.6038 118.199 60.6038 120.098 61.7754 121.27L69.3586 128.853C70.5302 130.024 72.4297 130.024 73.6012 128.853L128.223 74.2306C129.395 73.0591 129.395 71.1596 128.223 69.988L120.64 62.4048ZM86.6382 74.7245C86.6382 81.6519 81.0224 87.2677 74.095 87.2677C67.1676 87.2677 61.5518 81.6519 61.5518 74.7245C61.5518 67.7971 67.1676 62.1814 74.095 62.1814C81.0224 62.1814 86.6382 67.7971 86.6382 74.7245ZM128.449 116.535C128.449 123.462 122.833 129.078 115.906 129.078C108.978 129.078 103.362 123.462 103.362 116.535C103.362 109.607 108.978 103.992 115.906 103.992C122.833 103.992 128.449 109.607 128.449 116.535Z" fill="#F1F1F1" fill-opacity="0.1"/>
<path fill-rule="evenodd" clip-rule="evenodd" d="M120.64 62.4048C119.469 61.2332 117.569 61.2332 116.398 62.4048L61.7754 117.027C60.6038 118.199 60.6038 120.098 61.7754 121.27L69.3586 128.853C70.5302 130.024 72.4297 130.024 73.6012 128.853L128.223 74.2306C129.395 73.0591 129.395 71.1596 128.223 69.988L120.64 62.4048ZM86.6382 74.7245C86.6382 81.6519 81.0224 87.2677 74.095 87.2677C67.1676 87.2677 61.5518 81.6519 61.5518 74.7245C61.5518 67.7971 67.1676 62.1814 74.095 62.1814C81.0224 62.1814 86.6382 67.7971 86.6382 74.7245ZM128.449 116.535C128.449 123.462 122.833 129.078 115.906 129.078C108.978 129.078 103.362 123.462 103.362 116.535C103.362 109.607 108.978 103.992 115.906 103.992C122.833 103.992 128.449 109.607 128.449 116.535Z" fill="url(#paint2_linear_308_262)" fill-opacity="0.2"/>
<path d="M116.398 62.4048L116.256 62.2634V62.2634L116.398 62.4048ZM120.64 62.4048L120.499 62.5462V62.5462L120.64 62.4048ZM61.7754 117.027L61.9168 117.168H61.9168L61.7754 117.027ZM61.7754 121.27L61.9168 121.128H61.9168L61.7754 121.27ZM69.3586 128.853L69.2172 128.994H69.2172L69.3586 128.853ZM73.6012 128.853L73.4598 128.711L73.6012 128.853ZM128.223 74.2306L128.365 74.372L128.223 74.2306ZM128.223 69.988L128.365 69.8466L128.223 69.988ZM116.539 62.5462C117.633 61.4528 119.405 61.4528 120.499 62.5462L120.782 62.2634C119.532 61.0137 117.506 61.0137 116.256 62.2634L116.539 62.5462ZM61.9168 117.168L116.539 62.5462L116.256 62.2634L61.634 116.886L61.9168 117.168ZM61.9168 121.128C60.8234 120.035 60.8234 118.262 61.9168 117.168L61.634 116.886C60.3843 118.135 60.3843 120.161 61.634 121.411L61.9168 121.128ZM69.5 128.711L61.9168 121.128L61.634 121.411L69.2172 128.994L69.5 128.711ZM73.4598 128.711C72.3663 129.805 70.5935 129.805 69.5 128.711L69.2172 128.994C70.4668 130.244 72.493 130.244 73.7427 128.994L73.4598 128.711ZM128.082 74.0892L73.4598 128.711L73.7427 128.994L128.365 74.372L128.082 74.0892ZM128.082 70.1294C129.175 71.2229 129.175 72.9957 128.082 74.0892L128.365 74.372C129.615 73.1224 129.615 71.0962 128.365 69.8466L128.082 70.1294ZM120.499 62.5462L128.082 70.1294L128.365 69.8466L120.782 62.2634L120.499 62.5462ZM74.095 87.4677C81.1328 87.4677 86.8382 81.7624 86.8382 74.7245H86.4382C86.4382 81.5415 80.9119 87.0677 74.095 87.0677V87.4677ZM61.3518 74.7245C61.3518 81.7624 67.0571 87.4677 74.095 87.4677V87.0677C67.278 87.0677 61.7518 81.5415 61.7518 74.7245H61.3518ZM74.095 61.9814C67.0571 61.9814 61.3518 67.6867 61.3518 74.7245H61.7518C61.7518 67.9076 67.278 62.3814 74.095 62.3814V61.9814ZM86.8382 74.7245C86.8382 67.6867 81.1328 61.9814 74.095 61.9814V62.3814C80.9119 62.3814 86.4382 67.9076 86.4382 74.7245H86.8382ZM115.906 129.278C122.943 129.278 128.649 123.573 128.649 116.535H128.249C128.249 123.352 122.723 128.878 115.906 128.878V129.278ZM103.162 116.535C103.162 123.573 108.868 129.278 115.906 129.278V128.878C109.089 128.878 103.562 123.352 103.562 116.535H103.162ZM115.906 103.792C108.868 103.792 103.162 109.497 103.162 116.535H103.562C103.562 109.718 109.089 104.192 115.906 104.192V103.792ZM128.649 116.535C128.649 109.497 122.943 103.792 115.906 103.792V104.192C122.723 104.192 128.249 109.718 128.249 116.535H128.649Z" fill="url(#paint3_linear_308_262)" fill-opacity="0.1" mask="url(#path-3-inside-1_308_262)"/>

<defs>
<filter id="filter0_f_308_262" x="0" y="0" width="190" height="190" filterUnits="userSpaceOnUse" color-interpolation-filters="sRGB">
<feFlood flood-opacity="0" result="BackgroundImageFix"/>
<feBlend mode="normal" in="SourceGraphic" in2="BackgroundImageFix" result="shape"/>
<feGaussianBlur stdDeviation="25" result="effect1_foregroundBlur_308_262"/>
</filter>
<filter id="filter1_bi_308_262" x="57.8967" y="58.5261" width="74.2053" height="74.2054" filterUnits="userSpaceOnUse" color-interpolation-filters="sRGB">
<feFlood flood-opacity="0" result="BackgroundImageFix"/>
<feGaussianBlur in="BackgroundImage" stdDeviation="1.5"/>
<feComposite in2="SourceAlpha" operator="in" result="effect1_backgroundBlur_308_262"/>
<feBlend mode="normal" in="SourceGraphic" in2="effect1_backgroundBlur_308_262" result="shape"/>
<feColorMatrix in="SourceAlpha" type="matrix" values="0 0 0 0 0 0 0 0 0 0 0 0 0 0 0 0 0 0 127 0" result="hardAlpha"/>
<feOffset dy="0.5"/>
<feGaussianBlur stdDeviation="1"/>
<feComposite in2="hardAlpha" operator="arithmetic" k2="-1" k3="1"/>
<feColorMatrix type="matrix" values="0 0 0 0 1 0 0 0 0 1 0 0 0 0 1 0 0 0 0.4 0"/>
<feBlend mode="normal" in2="shape" result="effect2_innerShadow_308_262"/>
</filter>
<linearGradient id="paint0_linear_308_262" x1="45.725" y1="130.1" x2="148.08" y2="124.9" gradientUnits="userSpaceOnUse">
<stop stop-color="#FF00F5" stop-opacity="0.6"/>
<stop offset="1" stop-color="#FF006B"/>
</linearGradient>
<linearGradient id="paint1_linear_308_262" x1="72.005" y1="111.6" x2="119.758" y2="109.053" gradientUnits="userSpaceOnUse">
<stop stop-color="#FF00F5" stop-opacity="0.6"/>
<stop offset="1" stop-color="#FF006B"/>
</linearGradient>
<linearGradient id="paint2_linear_308_262" x1="63.7386" y1="75.1672" x2="138.088" y2="85.4935" gradientUnits="userSpaceOnUse">
<stop stop-color="#FE82DB"/>
<stop offset="1" stop-color="#68E4FF"/>
</linearGradient>
<linearGradient id="paint3_linear_308_262" x1="63.0281" y1="64.6264" x2="129.102" y2="64.6264" gradientUnits="userSpaceOnUse">
<stop stop-color="#FD84DC"/>
<stop offset="1" stop-color="#7FD6FA"/>
</linearGradient>
</defs>
</svg>
